<svg id="SvgjsSvg1001" width="288" height="288" xmlns="http://www.w3.org/2000/svg" version="1.1" xmlns:xlink="http://www.w3.org/1999/xlink" xmlns:svgjs="http://svgjs.com/svgjs"><defs id="SvgjsDefs1002"></defs><g id="SvgjsG1008" transform="matrix(1,0,0,1,0,0)"><svg xmlns="http://www.w3.org/2000/svg" xmlns:xlink="http://www.w3.org/1999/xlink" width="288" height="288" viewBox="0 0 32 32"><defs><linearGradient id="a"><stop offset="0" stop-color="#a6acec" className="stopColor000092 svgShape"></stop><stop offset="1" stop-color="#a56cc1" class="stopColorff00f3 svgShape"></stop></linearGradient><linearGradient id="b" x1="5" x2="24" y1="16.717" y2="16.717" gradientUnits="userSpaceOnUse" xlink:href="#a"></linearGradient></defs><path style={"line-height:normal;text-indent:0;text-align:start;text-decoration-line:none;text-decoration-style:solid;text-decoration-color:#000;text-transform:none;block-progression:tb;isolation:auto;mix-blend-mode:normal"} fill="url(#b)" fill-rule="evenodd" d="M 15.480469 4.4335938 C 12.458568 4.4335938 9.9999685 6.9027938 10 9.9335938 C 10.000029 12.964394 12.458611 15.433594 15.480469 15.433594 C 18.502327 15.433594 20.960909 12.964394 20.960938 9.9335938 C 20.960968 6.9027938 18.50237 4.4335938 15.480469 4.4335938 z M 15.480469 5.4335938 C 17.959744 5.4335938 19.960963 7.4410937 19.960938 9.9335938 C 19.960914 12.426094 17.959709 14.433594 15.480469 14.433594 C 13.001229 14.433594 11.000024 12.426094 11 9.9335938 C 10.999974 7.4410937 13.001194 5.4335938 15.480469 5.4335938 z M 12.5 16.433594 C 8.3523715 16.433594 5 19.801791 5 23.962891 L 5 28.478516 A 0.50004994 0.50004994 0 0 0 5.5 28.978516 L 9.3535156 28.978516 A 0.50004994 0.50004994 0 0 0 9.6464844 28.978516 L 21.353516 28.978516 A 0.50004994 0.50004994 0 0 0 21.646484 28.978516 L 25.5 28.978516 A 0.50004994 0.50004994 0 0 0 26 28.478516 L 26 23.962891 C 26 19.801791 22.647629 16.433594 18.5 16.433594 L 12.5 16.433594 z M 12.5 17.433594 L 18.5 17.433594 C 22.108733 17.433594 25 20.336291 25 23.962891 L 25 27.978516 L 22 27.978516 L 22 23.955078 A 0.50004994 0.50004994 0 0 0 21.492188 23.449219 A 0.50004994 0.50004994 0 0 0 21 23.955078 L 21 27.978516 L 10 27.978516 L 10 23.955078 A 0.50004994 0.50004994 0 0 0 9.4921875 23.449219 A 0.50004994 0.50004994 0 0 0 9 23.955078 L 9 27.978516 L 6 27.978516 L 6 23.962891 C 6 20.336291 8.8912667 17.433594 12.5 17.433594 z " color="#000" font-family="sans-serif" font-weight="400" overflow="visible"></path></svg></g></svg>